<svg xmlns="http://www.w3.org/2000/svg" xmlns:xlink="http://www.w3.org/1999/xlink" width="99" height="99" viewBox="0 0 99 99"><defs><style>.a{fill:#370e0e;opacity:0.35;}.b{clip-path:url(#a);}.c,.d{fill:#fff;}.c{stroke:rgba(0,0,0,0);stroke-miterlimit:10;}.e{fill:#e9e9e9;}.f{filter:url(#b);}</style><clipPath id="a"><rect class="a" width="99" height="99" transform="translate(-0.48 -0.2)"/></clipPath><filter id="b" x="-4.257" y="7.189" width="108.403" height="86.416" filterUnits="userSpaceOnUse"><feOffset input="SourceAlpha"/><feGaussianBlur stdDeviation="3" result="c"/><feFlood flood-opacity="0.161"/><feComposite operator="in" in2="c"/><feComposite in="SourceGraphic"/></filter></defs><g class="b" transform="translate(0.48 0.2)"><g transform="translate(4.854 16.489)"><g class="f" transform="matrix(1, 0, 0, 1, -5.33, -16.69)"><path class="c" d="M44.611,67.416a37.6,37.6,0,0,1-11.937-1.942,43.7,43.7,0,0,1-11.272-5.8A63.381,63.381,0,0,1,10.8,50.07,100.642,100.642,0,0,1,.861,36.7a5.629,5.629,0,0,1,0-5.983A100.767,100.767,0,0,1,10.8,17.345,63.381,63.381,0,0,1,21.4,7.738a43.7,43.7,0,0,1,11.272-5.8,37.653,37.653,0,0,1,23.875,0,43.708,43.708,0,0,1,11.273,5.8,63.344,63.344,0,0,1,10.605,9.606,100.66,100.66,0,0,1,9.934,13.372,5.629,5.629,0,0,1,0,5.983A100.578,100.578,0,0,1,78.427,50.07a63.344,63.344,0,0,1-10.605,9.606,43.7,43.7,0,0,1-11.273,5.8A37.607,37.607,0,0,1,44.611,67.416Zm0-51.554a17.845,17.845,0,0,0-.054,35.69h.054a17.845,17.845,0,1,0,0-35.69Zm0,29.744h-.035a11.9,11.9,0,0,1,.035-23.794h.038a11.9,11.9,0,0,1-.038,23.794Z" transform="translate(5.33 16.69)"/></g><path class="d" d="M2222.789,537.927a11.638,11.638,0,1,0-11.6-11.673h0a11.639,11.639,0,0,0,11.6,11.673Z" transform="translate(-2177.24 -492.581)"/></g><path class="e" d="M479.058,313.021a38.315,38.315,0,0,1-11.938-1.9,44.038,44.038,0,0,1-11.274-5.68,62.894,62.894,0,0,1-10.606-9.413,98.88,98.88,0,0,1-9.936-13.1,5.424,5.424,0,0,1-.469-4.958l.008.01v.011c12.877,20.03,27.75,30.186,44.21,30.186,16.491,0,31.356-10.116,44.18-30.064l.056-.089v-.007a5.422,5.422,0,0,1-.485,4.911,98.75,98.75,0,0,1-9.934,13.1,62.841,62.841,0,0,1-10.61,9.414,44.007,44.007,0,0,1-11.276,5.681A38.328,38.328,0,0,1,479.058,313.021Zm44.248-35.011H523.3m-88.46-.043h0" transform="translate(-429.589 -229.473)"/></g></svg>